<svg width="147" height="19" viewBox="0 0 147 19" fill="none" xmlns="http://www.w3.org/2000/svg">
<path d="M14.8242 4.11328H9.70312V18H5.58984V4.11328H0.5625V0.9375H14.8242V4.11328ZM23.2852 8.89453L21.9844 8.80078C20.7422 8.80078 19.9453 9.19141 19.5938 9.97266V18H15.6445V5.32031H19.3477L19.4766 6.94922C20.1406 5.70703 21.0664 5.08594 22.2539 5.08594C22.6758 5.08594 23.043 5.13281 23.3555 5.22656L23.2852 8.89453ZM31.5 18C31.3594 17.7422 31.2344 17.3633 31.125 16.8633C30.3984 17.7773 29.3828 18.2344 28.0781 18.2344C26.8828 18.2344 25.8672 17.875 25.0312 17.1562C24.1953 16.4297 23.7773 15.5195 23.7773 14.4258C23.7773 13.0508 24.2852 12.0117 25.3008 11.3086C26.3164 10.6055 27.793 10.2539 29.7305 10.2539H30.9492V9.58594C30.9492 8.42188 30.4453 7.83984 29.4375 7.83984C28.5 7.83984 28.0312 8.30078 28.0312 9.22266H24.082C24.082 7.99609 24.6016 7 25.6406 6.23438C26.6875 5.46875 28.0195 5.08594 29.6367 5.08594C31.2539 5.08594 32.5312 5.48047 33.4688 6.26953C34.4062 7.05859 34.8867 8.14062 34.9102 9.51562V15.1289C34.9258 16.293 35.1055 17.1836 35.4492 17.8008V18H31.5ZM29.0273 15.4219C29.5195 15.4219 29.9258 15.3164 30.2461 15.1055C30.5742 14.8945 30.8086 14.6562 30.9492 14.3906V12.3633H29.8008C28.4258 12.3633 27.7383 12.9805 27.7383 14.2148C27.7383 14.5742 27.8594 14.8672 28.1016 15.0938C28.3438 15.3125 28.6523 15.4219 29.0273 15.4219ZM40.7344 5.32031L40.8633 6.80859C41.7383 5.66016 42.9453 5.08594 44.4844 5.08594C45.8047 5.08594 46.7891 5.48047 47.4375 6.26953C48.0938 7.05859 48.4336 8.24609 48.457 9.83203V18H44.4961V9.99609C44.4961 9.35547 44.3672 8.88672 44.1094 8.58984C43.8516 8.28516 43.3828 8.13281 42.7031 8.13281C41.9297 8.13281 41.3555 8.4375 40.9805 9.04688V18H37.0312V5.32031H40.7344ZM57.293 14.4375C57.293 14.1016 57.1172 13.832 56.7656 13.6289C56.4141 13.4258 55.7461 13.2148 54.7617 12.9961C53.7773 12.7773 52.9648 12.4922 52.3242 12.1406C51.6836 11.7812 51.1953 11.3477 50.8594 10.8398C50.5234 10.332 50.3555 9.75 50.3555 9.09375C50.3555 7.92969 50.8359 6.97266 51.7969 6.22266C52.7578 5.46484 54.0156 5.08594 55.5703 5.08594C57.2422 5.08594 58.5859 5.46484 59.6016 6.22266C60.6172 6.98047 61.125 7.97656 61.125 9.21094H57.1641C57.1641 8.19531 56.6289 7.6875 55.5586 7.6875C55.1445 7.6875 54.7969 7.80469 54.5156 8.03906C54.2344 8.26562 54.0938 8.55078 54.0938 8.89453C54.0938 9.24609 54.2656 9.53125 54.6094 9.75C54.9531 9.96875 55.5 10.1484 56.25 10.2891C57.0078 10.4297 57.6719 10.5977 58.2422 10.793C60.1484 11.4492 61.1016 12.625 61.1016 14.3203C61.1016 15.4766 60.5859 16.418 59.5547 17.1445C58.5312 17.8711 57.2031 18.2344 55.5703 18.2344C54.4844 18.2344 53.5156 18.0391 52.6641 17.6484C51.8125 17.2578 51.1484 16.7266 50.6719 16.0547C50.1953 15.3828 49.957 14.6758 49.957 13.9336H53.6484C53.6641 14.5195 53.8594 14.9492 54.2344 15.2227C54.6094 15.4883 55.0898 15.6211 55.6758 15.6211C56.2148 15.6211 56.6172 15.5117 56.8828 15.293C57.1562 15.0742 57.293 14.7891 57.293 14.4375ZM68.543 0.9375L72.3516 12.8086L76.1484 0.9375H81.5625V18H77.4375V14.0156L77.8359 5.85938L73.7109 18H70.9922L66.8555 5.84766L67.2539 14.0156V18H63.1406V0.9375H68.543ZM83.5078 11.543C83.5078 10.2773 83.7539 9.15234 84.2461 8.16797C84.7383 7.17578 85.4453 6.41406 86.3672 5.88281C87.2891 5.35156 88.3711 5.08594 89.6133 5.08594C91.5117 5.08594 93.0078 5.67578 94.1016 6.85547C95.1953 8.02734 95.7422 9.625 95.7422 11.6484V11.7891C95.7422 13.7656 95.1914 15.3359 94.0898 16.5C92.9961 17.6562 91.5117 18.2344 89.6367 18.2344C87.832 18.2344 86.3828 17.6953 85.2891 16.6172C84.1953 15.5312 83.6055 14.0625 83.5195 12.2109L83.5078 11.543ZM87.457 11.7891C87.457 12.9609 87.6406 13.8203 88.0078 14.3672C88.375 14.9141 88.918 15.1875 89.6367 15.1875C91.043 15.1875 91.7617 14.1055 91.793 11.9414V11.543C91.793 9.26953 91.0664 8.13281 89.6133 8.13281C88.293 8.13281 87.5781 9.11328 87.4688 11.0742L87.457 11.7891ZM101.109 5.32031L101.238 6.80859C102.113 5.66016 103.32 5.08594 104.859 5.08594C106.18 5.08594 107.164 5.48047 107.812 6.26953C108.469 7.05859 108.809 8.24609 108.832 9.83203V18H104.871V9.99609C104.871 9.35547 104.742 8.88672 104.484 8.58984C104.227 8.28516 103.758 8.13281 103.078 8.13281C102.305 8.13281 101.73 8.4375 101.355 9.04688V18H97.4062V5.32031H101.109ZM115.195 18H111.234V5.32031H115.195V18ZM111 2.05078C111 1.48828 111.203 1.02734 111.609 0.667969C112.016 0.308594 112.543 0.128906 113.191 0.128906C113.84 0.128906 114.367 0.308594 114.773 0.667969C115.18 1.02734 115.383 1.48828 115.383 2.05078C115.383 2.61328 115.18 3.07422 114.773 3.43359C114.367 3.79297 113.84 3.97266 113.191 3.97266C112.543 3.97266 112.016 3.79297 111.609 3.43359C111.203 3.07422 111 2.61328 111 2.05078ZM122.238 2.16797V5.32031H124.324V8.0625H122.238V13.8633C122.238 14.3398 122.324 14.6719 122.496 14.8594C122.668 15.0469 123.008 15.1406 123.516 15.1406C123.906 15.1406 124.234 15.1172 124.5 15.0703V17.8945C123.789 18.1211 123.047 18.2344 122.273 18.2344C120.914 18.2344 119.91 17.9141 119.262 17.2734C118.613 16.6328 118.289 15.6602 118.289 14.3555V8.0625H116.672V5.32031H118.289V2.16797H122.238ZM125.039 11.543C125.039 10.2773 125.285 9.15234 125.777 8.16797C126.27 7.17578 126.977 6.41406 127.898 5.88281C128.82 5.35156 129.902 5.08594 131.145 5.08594C133.043 5.08594 134.539 5.67578 135.633 6.85547C136.727 8.02734 137.273 9.625 137.273 11.6484V11.7891C137.273 13.7656 136.723 15.3359 135.621 16.5C134.527 17.6562 133.043 18.2344 131.168 18.2344C129.363 18.2344 127.914 17.6953 126.82 16.6172C125.727 15.5312 125.137 14.0625 125.051 12.2109L125.039 11.543ZM128.988 11.7891C128.988 12.9609 129.172 13.8203 129.539 14.3672C129.906 14.9141 130.449 15.1875 131.168 15.1875C132.574 15.1875 133.293 14.1055 133.324 11.9414V11.543C133.324 9.26953 132.598 8.13281 131.145 8.13281C129.824 8.13281 129.109 9.11328 129 11.0742L128.988 11.7891ZM146.684 8.89453L145.383 8.80078C144.141 8.80078 143.344 9.19141 142.992 9.97266V18H139.043V5.32031H142.746L142.875 6.94922C143.539 5.70703 144.465 5.08594 145.652 5.08594C146.074 5.08594 146.441 5.13281 146.754 5.22656L146.684 8.89453Z" fill="#1875F0"/>
</svg>
